<?xml version="1.0" encoding="UTF-8"?>
<svg xmlns="http://www.w3.org/2000/svg" viewBox="0 0 200 280" width="200" height="280">
  <defs>
    <linearGradient id="cardBg" x1="0%" y1="0%" x2="100%" y2="100%">
      <stop offset="0%"   style="stop-color:#ffffff"/>
      <stop offset="100%" style="stop-color:#f1f5f9"/>
    </linearGradient>
  </defs>
  <!-- Card background -->
  <rect width="200" height="280" rx="12" fill="url(#cardBg)"/>
  <!-- Gold outer border -->
  <rect x="1" y="1" width="198" height="278" rx="11" fill="none" stroke="#d4af37" stroke-width="2"/>
  <!-- Subtle inner border -->
  <rect x="6" y="6" width="188" height="268" rx="8" fill="none" stroke="#d4af37" stroke-width="0.5" opacity="0.4"/>

  <!-- Top-left corner -->
  <text x="26" y="30" font-family="Georgia,serif" font-size="54" font-weight="900" fill="#dc2626" text-anchor="middle" dominant-baseline="central">K</text>
  <text x="26" y="72" font-family="Arial,sans-serif" font-size="38" fill="#dc2626" text-anchor="middle" dominant-baseline="central">&#x2665;</text>

  <!-- Bottom-right corner (rotated 180deg) -->
  <text x="174" y="250" font-family="Georgia,serif" font-size="54" font-weight="900" fill="#dc2626" text-anchor="middle" dominant-baseline="central" transform="rotate(180,174,250)">K</text>
  <text x="174" y="208" font-family="Arial,sans-serif" font-size="38" fill="#dc2626" text-anchor="middle" dominant-baseline="central" transform="rotate(180,174,208)">&#x2665;</text>

  <rect x="20" y="50" width="160" height="180" rx="4" fill="#fff5f5" opacity="0.55"/>
  <polygon points="45,103 65,72 100,92 135,72 155,103 155,122 45,122" fill="#dc2626" opacity="0.75"/>
  <circle cx="65"  cy="74" r="6" fill="#d4af37" opacity="0.9"/>
  <circle cx="100" cy="62" r="8" fill="#d4af37" opacity="0.9"/>
  <circle cx="135" cy="74" r="6" fill="#d4af37" opacity="0.9"/>
  <text x="100" y="182" font-family="Georgia,serif" font-size="70" fill="#dc2626" text-anchor="middle" dominant-baseline="middle" opacity="0.85">K</text>
  <line x1="28" y1="64"  x2="172" y2="64"  stroke="#dc2626" stroke-width="1" opacity="0.25"/>
  <line x1="28" y1="216" x2="172" y2="216" stroke="#dc2626" stroke-width="1" opacity="0.25"/>
</svg>